<svg xmlns="http://www.w3.org/2000/svg" width="1200" height="800" viewBox="0 0 1200 800">
  <defs>
    <linearGradient id="grad1" x1="0%" y1="0%" x2="100%" y2="100%">
      <stop offset="0%" style="stop-color:#2d2d2d;stop-opacity:1" />
      <stop offset="100%" style="stop-color:#1a1a1a;stop-opacity:1" />
    </linearGradient>
  </defs>
  <rect width="1200" height="800" fill="url(#grad1)"/>
  <g opacity="0.1" fill="#c59d5f">
    <path d="M200,200 L250,250 L200,300 L150,250 Z"/>
    <path d="M400,300 L450,350 L400,400 L350,350 Z"/>
    <path d="M600,200 L650,250 L600,300 L550,250 Z"/>
    <path d="M800,300 L850,350 L800,400 L750,350 Z"/>
    <path d="M1000,200 L1050,250 L1000,300 L950,250 Z"/>
    <path d="M200,500 L250,550 L200,600 L150,550 Z"/>
    <path d="M400,600 L450,650 L400,700 L350,650 Z"/>
    <path d="M600,500 L650,550 L600,600 L550,550 Z"/>
    <path d="M800,600 L850,650 L800,700 L750,650 Z"/>
    <path d="M1000,500 L1050,550 L1000,600 L950,550 Z"/>
  </g>
  <g opacity="0.7">
    <path d="M600,400 C650,350 700,400 750,350 S800,300 850,350 S900,400 950,350" stroke="#c59d5f" stroke-width="2" fill="none"/>
    <path d="M250,450 C300,400 350,450 400,400 S450,350 500,400 S550,450 600,400" stroke="#c59d5f" stroke-width="2" fill="none"/>
  </g>
  <g transform="translate(600, 400)" opacity="0.2">
    <path d="M0,0 L50,-50 L100,0 L50,50 Z" fill="#c59d5f"/>
    <circle cx="0" cy="0" r="30" fill="#c59d5f"/>
  </g>
  <g transform="translate(300, 200)" opacity="0.2">
    <rect x="-25" y="-25" width="50" height="50" fill="#c59d5f"/>
    <circle cx="0" cy="0" r="15" fill="#2d2d2d"/>
  </g>
  <g transform="translate(900, 600)" opacity="0.2">
    <rect x="-25" y="-25" width="50" height="50" fill="#c59d5f"/>
    <circle cx="0" cy="0" r="15" fill="#2d2d2d"/>
  </g>
</svg>